{
  "accessors": [
    {
      "bufferView": 2,
      "componentType": 5126,
      "count": 65532,
      "max": [
        7.413179874420166,
        -1.1786855459213257,
        8.923836708068848
      ],
      "min": [
        -16.67682456970215,
        -10.564421653747559,
        -6.896406650543213
      ],
      "type": "VEC3"
    },
    {
      "bufferView": 2,
      "byteOffset": 786384,
      "componentType": 5126,
      "count": 65532,
      "max": [
        0.9999660849571228,
        0.9997197389602661,
        0.999985933303833
      ],
      "min": [
        -0.9999341368675232,
        -0.9999784231185913,
        -0.9999603629112244
      ],
      "type": "VEC3"
    },
    {
      "bufferView": 1,
      "componentType": 5126,
      "count": 65532,
      "max": [
        0.9997550249099731,
        0.9519039988517761
      ],
      "min": [
        0.00024399999529123306,
        0.00024399999529123306
      ],
      "type": "VEC2"
    },
    {
      "bufferView": 0,
      "componentType": 5125,
      "count": 276645,
      "type": "SCALAR"
    },
    {
      "bufferView": 2,
      "byteOffset": 1572768,
      "componentType": 5126,
      "count": 65532,
      "max": [
        7.378243446350098,
        -1.2079342603683472,
        8.878168106079102
      ],
      "min": [
        -16.67682456970215,
        -10.530264854431152,
        -6.896406650543213
      ],
      "type": "VEC3"
    },
    {
      "bufferView": 2,
      "byteOffset": 2359152,
      "componentType": 5126,
      "count": 65532,
      "max": [
        0.9999730587005615,
        0.9999496936798096,
        1.0
      ],
      "min": [
        -0.9998600482940674,
        -0.999970018863678,
        -0.9999580383300781
      ],
      "type": "VEC3"
    },
    {
      "bufferView": 1,
      "byteOffset": 524256,
      "componentType": 5126,
      "count": 65532,
      "max": [
        0.9997559785842896,
        0.9665529727935791
      ],
      "min": [
        0.00024399999529123306,
        0.00024399999529123306
      ],
      "type": "VEC2"
    },
    {
      "bufferView": 0,
      "byteOffset": 1106580,
      "componentType": 5125,
      "count": 258915,
      "type": "SCALAR"
    },
    {
      "bufferView": 2,
      "byteOffset": 3145536,
      "componentType": 5126,
      "count": 65532,
      "max": [
        7.373338222503662,
        -1.1786855459213257,
        8.923836708068848
      ],
      "min": [
        -16.659502029418945,
        -10.574239730834961,
        -6.896340847015381
      ],
      "type": "VEC3"
    },
    {
      "bufferView": 2,
      "byteOffset": 3931920,
      "componentType": 5126,
      "count": 65532,
      "max": [
        0.9999560713768005,
        0.9999304413795471,
        0.999984860420227
      ],
      "min": [
        -0.9999443292617798,
        -0.9999856948852539,
        -0.999948263168335
      ],
      "type": "VEC3"
    },
    {
      "bufferView": 1,
      "byteOffset": 1048512,
      "componentType": 5126,
      "count": 65532,
      "max": [
        0.9997559785842896,
        0.9616699814796448
      ],
      "min": [
        0.00024399999529123306,
        0.00024399999529123306
      ],
      "type": "VEC2"
    },
    {
      "bufferView": 0,
      "byteOffset": 2142240,
      "componentType": 5125,
      "count": 199209,
      "type": "SCALAR"
    },
    {
      "bufferView": 2,
      "byteOffset": 4718304,
      "componentType": 5126,
      "count": 12291,
      "max": [
        7.286725044250488,
        -1.1815961599349976,
        8.911336898803711
      ],
      "min": [
        -16.68191146850586,
        -10.53234577178955,
        -6.892660140991211
      ],
      "type": "VEC3"
    },
    {
      "bufferView": 2,
      "byteOffset": 4865796,
      "componentType": 5126,
      "count": 12291,
      "max": [
        0.9998324513435364,
        0.9998831152915955,
        0.999703586101532
      ],
      "min": [
        -0.9995061755180359,
        -0.9997239708900452,
        -0.9993183612823486
      ],
      "type": "VEC3"
    },
    {
      "bufferView": 1,
      "byteOffset": 1572768,
      "componentType": 5126,
      "count": 12291,
      "max": [
        0.9997559785842896,
        0.9519039988517761
      ],
      "min": [
        0.00024399999529123306,
        0.00024399999529123306
      ],
      "type": "VEC2"
    },
    {
      "bufferView": 0,
      "byteOffset": 2939076,
      "componentType": 5125,
      "count": 15951,
      "type": "SCALAR"
    }
  ],
  "asset": {
    "extras": {
      "author": "Rigsters (https://sketchfab.com/rigsters)",
      "license": "CC-BY-4.0 (http://creativecommons.org/licenses/by/4.0/)",
      "source": "https://sketchfab.com/3d-models/tyrannosaurus-rex-skeleton-77e21c4e5d65468bbe11780ae0557b95",
      "title": "Tyrannosaurus Rex skeleton"
    },
    "generator": "Sketchfab-12.68.0",
    "version": "2.0"
  },
  "bufferViews": [
    {
      "buffer": 0,
      "byteLength": 3002880,
      "name": "floatBufferViews",
      "target": 34963
    },
    {
      "buffer": 0,
      "byteLength": 1671096,
      "byteOffset": 3002880,
      "byteStride": 8,
      "name": "floatBufferViews",
      "target": 34962
    },
    {
      "buffer": 0,
      "byteLength": 5013288,
      "byteOffset": 4673976,
      "byteStride": 12,
      "name": "floatBufferViews",
      "target": 34962
    }
  ],
  "buffers": [
    {
      "byteLength": 9687264,
      "uri": "scene.bin"
    }
  ],
  "images": [
    {
      "uri": "textures/dyno_tex_Material_u1_v1_baseColor.jpeg"
    }
  ],
  "materials": [
    {
      "doubleSided": true,
      "name": "dyno_tex_Material_u1_v1",
      "pbrMetallicRoughness": {
        "baseColorTexture": {
          "index": 0
        },
        "roughnessFactor": 0.39023185250945525
      }
    }
  ],
  "meshes": [
    {
      "name": "Object_0",
      "primitives": [
        {
          "attributes": {
            "NORMAL": 1,
            "POSITION": 0,
            "TEXCOORD_0": 2
          },
          "indices": 3,
          "material": 0,
          "mode": 4
        }
      ]
    },
    {
      "name": "Object_1",
      "primitives": [
        {
          "attributes": {
            "NORMAL": 5,
            "POSITION": 4,
            "TEXCOORD_0": 6
          },
          "indices": 7,
          "material": 0,
          "mode": 4
        }
      ]
    },
    {
      "name": "Object_2",
      "primitives": [
        {
          "attributes": {
            "NORMAL": 9,
            "POSITION": 8,
            "TEXCOORD_0": 10
          },
          "indices": 11,
          "material": 0,
          "mode": 4
        }
      ]
    },
    {
      "name": "Object_3",
      "primitives": [
        {
          "attributes": {
            "NORMAL": 13,
            "POSITION": 12,
            "TEXCOORD_0": 14
          },
          "indices": 15,
          "material": 0,
          "mode": 4
        }
      ]
    }
  ],
  "nodes": [
    {
      "children": [
        1
      ],
      "matrix": [
        -1.3352169949638049e-16,
        -0.02873614413119959,
        0.3424124619240576,
        0.0,
        0.0,
        -0.3424124619240576,
        -0.02873614413119959,
        0.0,
        0.34361615777015686,
        -3.814905699896587e-17,
        7.62981139979317e-17,
        0.0,
        0,
        -1,
        0,
        1.0
      ],
      "name": "Sketchfab_model"
    },
    {
      "children": [
        2,
        3,
        4,
        5
      ],
      "name": "dyno_tex.obj.cleaner.materialmerger.gles"
    },
    {
      "mesh": 0,
      "name": "Object_2"
    },
    {
      "mesh": 1,
      "name": "Object_3"
    },
    {
      "mesh": 2,
      "name": "Object_4"
    },
    {
      "mesh": 3,
      "name": "Object_5"
    }
  ],
  "samplers": [
    {
      "magFilter": 9729,
      "minFilter": 9987,
      "wrapS": 10497,
      "wrapT": 10497
    }
  ],
  "scene": 0,
  "scenes": [
    {
      "name": "Sketchfab_Scene",
      "nodes": [
        0
      ]
    }
  ],
  "textures": [
    {
      "sampler": 0,
      "source": 0
    }
  ]
}
