{
  "accessors": [
    {
      "bufferView": 2,
      "componentType": 5126,
      "count": 65532,
      "max": [
        17.28300666809082,
        -5.054600238800049,
        0.9829905033111572
      ],
      "min": [
        -0.9101101160049438,
        -37.11043930053711,
        -19.8037166595459
      ],
      "type": "VEC3"
    },
    {
      "bufferView": 2,
      "byteOffset": 786384,
      "componentType": 5126,
      "count": 65532,
      "max": [
        0.8556583523750305,
        0.9999935626983643,
        0.9894731044769287
      ],
      "min": [
        -0.9999824166297913,
        -0.8135108947753906,
        -0.9999043345451355
      ],
      "type": "VEC3"
    },
    {
      "bufferView": 1,
      "componentType": 5126,
      "count": 65532,
      "max": [
        0.999875009059906,
        0.9608150124549866
      ],
      "min": [
        0.00012199999764561653,
        0.00012799999967683107
      ],
      "type": "VEC2"
    },
    {
      "bufferView": 0,
      "componentType": 5125,
      "count": 296373,
      "type": "SCALAR"
    },
    {
      "bufferView": 2,
      "byteOffset": 1572768,
      "componentType": 5126,
      "count": 65532,
      "max": [
        13.61989974975586,
        -5.220302581787109,
        17.232147216796875
      ],
      "min": [
        -17.535385131835938,
        -38.09379959106445,
        -15.32509994506836
      ],
      "type": "VEC3"
    },
    {
      "bufferView": 2,
      "byteOffset": 2359152,
      "componentType": 5126,
      "count": 65532,
      "max": [
        0.9817975163459778,
        0.9999601244926453,
        0.9986090660095215
      ],
      "min": [
        -0.9995334148406982,
        -0.9852263331413269,
        -0.999995231628418
      ],
      "type": "VEC3"
    },
    {
      "bufferView": 1,
      "byteOffset": 524256,
      "componentType": 5126,
      "count": 65532,
      "max": [
        0.999767005443573,
        0.7728270292282104
      ],
      "min": [
        0.00012199999764561653,
        0.0001230000052601099
      ],
      "type": "VEC2"
    },
    {
      "bufferView": 0,
      "byteOffset": 1185492,
      "componentType": 5125,
      "count": 299595,
      "type": "SCALAR"
    },
    {
      "bufferView": 2,
      "byteOffset": 3145536,
      "componentType": 5126,
      "count": 65532,
      "max": [
        -1.0756200551986694,
        -7.178328037261963,
        17.40620231628418
      ],
      "min": [
        -17.533754348754883,
        -37.73292541503906,
        0.42213401198387146
      ],
      "type": "VEC3"
    },
    {
      "bufferView": 2,
      "byteOffset": 3931920,
      "componentType": 5126,
      "count": 65532,
      "max": [
        0.9491592645645142,
        0.999895453453064,
        0.6207568645477295
      ],
      "min": [
        -0.9968450665473938,
        -0.8039513826370239,
        -0.999885082244873
      ],
      "type": "VEC3"
    },
    {
      "bufferView": 1,
      "byteOffset": 1048512,
      "componentType": 5126,
      "count": 65532,
      "max": [
        0.999871015548706,
        0.9456790089607239
      ],
      "min": [
        0.00012199999764561653,
        0.00012199999764561653
      ],
      "type": "VEC2"
    },
    {
      "bufferView": 0,
      "byteOffset": 2383872,
      "componentType": 5125,
      "count": 260247,
      "type": "SCALAR"
    },
    {
      "bufferView": 2,
      "byteOffset": 4718304,
      "componentType": 5126,
      "count": 64735,
      "max": [
        9.638699531555176,
        -11.34492015838623,
        4.091695785522461
      ],
      "min": [
        -4.563601493835449,
        -37.621585845947266,
        -11.029899597167969
      ],
      "type": "VEC3"
    },
    {
      "bufferView": 2,
      "byteOffset": 5495124,
      "componentType": 5126,
      "count": 64735,
      "max": [
        0.8654517531394958,
        0.9999948740005493,
        0.9324890971183777
      ],
      "min": [
        -0.9998936653137207,
        -0.9994181990623474,
        -0.9999987483024597
      ],
      "type": "VEC3"
    },
    {
      "bufferView": 1,
      "byteOffset": 1572768,
      "componentType": 5126,
      "count": 64735,
      "max": [
        0.999862015247345,
        0.7757570147514343
      ],
      "min": [
        0.00012199999764561653,
        0.00012700000661425292
      ],
      "type": "VEC2"
    },
    {
      "bufferView": 0,
      "byteOffset": 3424860,
      "componentType": 5125,
      "count": 267948,
      "type": "SCALAR"
    }
  ],
  "asset": {
    "extras": {
      "author": "Global Digital Heritage (https://sketchfab.com/GlobalDigitalHeritage)",
      "license": "CC-BY-4.0 (http://creativecommons.org/licenses/by/4.0/)",
      "source": "https://sketchfab.com/3d-models/cieza-museum-arch-1-4b8d1cbec6004a9189cdce8dc2f952eb",
      "title": "Cieza Museum Arch #1"
    },
    "generator": "Sketchfab-15.7.0",
    "version": "2.0"
  },
  "bufferViews": [
    {
      "buffer": 0,
      "byteLength": 4496652,
      "name": "floatBufferViews",
      "target": 34963
    },
    {
      "buffer": 0,
      "byteLength": 2090648,
      "byteOffset": 4496652,
      "byteStride": 8,
      "name": "floatBufferViews",
      "target": 34962
    },
    {
      "buffer": 0,
      "byteLength": 6271944,
      "byteOffset": 6587300,
      "byteStride": 12,
      "name": "floatBufferViews",
      "target": 34962
    }
  ],
  "buffers": [
    {
      "byteLength": 12859244,
      "uri": "scene.bin"
    }
  ],
  "images": [
    {
      "uri": "textures/Cieza_Arch_1_Model_7_u1_v1_baseColor.jpeg"
    }
  ],
  "materials": [
    {
      "doubleSided": true,
      "name": "Cieza_Arch_1_Model_7_u1_v1",
      "pbrMetallicRoughness": {
        "baseColorTexture": {
          "index": 0
        },
        "metallicFactor": 0.0
      }
    }
  ],
  "meshes": [
    {
      "name": "Object_0",
      "primitives": [
        {
          "attributes": {
            "NORMAL": 1,
            "POSITION": 0,
            "TEXCOORD_0": 2
          },
          "indices": 3,
          "material": 0,
          "mode": 4
        }
      ]
    },
    {
      "name": "Object_1",
      "primitives": [
        {
          "attributes": {
            "NORMAL": 5,
            "POSITION": 4,
            "TEXCOORD_0": 6
          },
          "indices": 7,
          "material": 0,
          "mode": 4
        }
      ]
    },
    {
      "name": "Object_2",
      "primitives": [
        {
          "attributes": {
            "NORMAL": 9,
            "POSITION": 8,
            "TEXCOORD_0": 10
          },
          "indices": 11,
          "material": 0,
          "mode": 4
        }
      ]
    },
    {
      "name": "Object_3",
      "primitives": [
        {
          "attributes": {
            "NORMAL": 13,
            "POSITION": 12,
            "TEXCOORD_0": 14
          },
          "indices": 15,
          "material": 0,
          "mode": 4
        }
      ]
    }
  ],
  "nodes": [
    {
      "children": [
        1
      ],
      "matrix": [
        0.7234484553337097,
        0.08434987068176285,
        -0.6852061152458191,
        0.0,
        0.026474658399820328,
        -0.99516761302948,
        -0.09455433487892173,
        0.0,
        -0.6898705959320068,
        0.05026458948850648,
        -0.7221856117248535,
        0.0,
        0.0,
        0.0,
        0.0,
        1.0
      ],
      "name": "Sketchfab_model"
    },
    {
      "children": [
        2,
        3,
        4,
        5
      ],
      "name": "Cieza_Arch_1_Model_7.obj.cleaner.materialmerger.gles"
    },
    {
      "mesh": 0,
      "name": "Object_2"
    },
    {
      "mesh": 1,
      "name": "Object_3"
    },
    {
      "mesh": 2,
      "name": "Object_4"
    },
    {
      "mesh": 3,
      "name": "Object_5"
    }
  ],
  "samplers": [
    {
      "magFilter": 9729,
      "minFilter": 9987,
      "wrapS": 10497,
      "wrapT": 10497
    }
  ],
  "scene": 0,
  "scenes": [
    {
      "name": "Sketchfab_Scene",
      "nodes": [
        0
      ]
    }
  ],
  "textures": [
    {
      "sampler": 0,
      "source": 0
    }
  ]
}
